<?xml version="1.0" encoding="UTF-8" standalone="no"?>
<!DOCTYPE svg PUBLIC "-//W3C//DTD SVG 1.1//EN" "http://www.w3.org/Graphics/SVG/1.1/DTD/svg11.dtd">
<svg width="100%" height="100%" viewBox="0 0 800 800" version="1.1" xmlns="http://www.w3.org/2000/svg" xmlns:xlink="http://www.w3.org/1999/xlink" xml:space="preserve" xmlns:serif="http://www.serif.com/" style="fill-rule:evenodd;clip-rule:evenodd;stroke-linejoin:round;stroke-miterlimit:2;">
    <g transform="matrix(1,0,0,1,5,-106)">
        <path d="M474.323,399.3C460.517,399.3 449.323,410.493 449.323,424.3L449.323,574.3C449.323,588.107 460.517,599.3 474.323,599.3L624.323,599.3C638.13,599.3 649.323,588.107 649.323,574.3L649.323,424.3C649.323,410.493 638.13,399.3 624.323,399.3L474.323,399.3ZM499.323,549.3L499.323,449.3L599.323,449.3L599.323,549.3L499.323,549.3Z" style="fill:rgb(33,33,33);fill-rule:nonzero;"/>
    </g>
    <g transform="matrix(1,0,0,1,5,-106)">
        <path d="M150.798,441.667C150.798,427.86 161.99,416.667 175.798,416.667L375,416.667C388.807,416.667 400,427.86 400,441.667C400,455.473 388.807,466.667 375,466.667L175.798,466.667C161.99,466.667 150.798,455.473 150.798,441.667Z" style="fill:rgb(33,33,33);fill-rule:nonzero;"/>
    </g>
    <g transform="matrix(1,0,0,1,5,-106)">
        <path d="M175.798,533.333C161.99,533.333 150.798,544.527 150.798,558.333C150.798,572.14 161.99,583.333 175.798,583.333L375,583.333C388.807,583.333 400,572.14 400,558.333C400,544.527 388.807,533.333 375,533.333L175.798,533.333Z" style="fill:rgb(33,33,33);fill-rule:nonzero;"/>
    </g>
    <g transform="matrix(1,0,0,1,9,-1)">
        <path d="M175.798,533.333C161.99,533.333 150.798,544.527 150.798,558.333C150.798,572.14 161.99,583.333 175.798,583.333L375,583.333C388.807,583.333 400,572.14 400,558.333C400,544.527 388.807,533.333 375,533.333L175.798,533.333Z" style="fill:rgb(33,33,33);fill-rule:nonzero;"/>
    </g>
    <g transform="matrix(1,0,0,1,6,-315)">
        <path d="M175.798,533.333C161.99,533.333 150.798,544.527 150.798,558.333C150.798,572.14 161.99,583.333 175.798,583.333L375,583.333C388.807,583.333 400,572.14 400,558.333C400,544.527 388.807,533.333 375,533.333L175.798,533.333Z" style="fill:rgb(33,33,33);fill-rule:nonzero;"/>
    </g>
    <g transform="matrix(1,0,0,1,100,-315)">
        <path d="M175.798,533.333C161.99,533.333 150.798,544.527 150.798,558.333C150.798,572.14 161.99,583.333 175.798,583.333L375,583.333C388.807,583.333 400,572.14 400,558.333C400,544.527 388.807,533.333 375,533.333L175.798,533.333Z" style="fill:rgb(33,33,33);fill-rule:nonzero;"/>
    </g>
    <g transform="matrix(1,0,0,1,251,-1)">
        <path d="M175.798,533.333C161.99,533.333 150.798,544.527 150.798,558.333C150.798,572.14 161.99,583.333 175.798,583.333L375,583.333C388.807,583.333 400,572.14 400,558.333C400,544.527 388.807,533.333 375,533.333L175.798,533.333Z" style="fill:rgb(33,33,33);fill-rule:nonzero;"/>
    </g>
    <g transform="matrix(1,0,0,1,151,-1)">
        <path d="M175.798,533.333C161.99,533.333 150.798,544.527 150.798,558.333C150.798,572.14 161.99,583.333 175.798,583.333L375,583.333C388.807,583.333 400,572.14 400,558.333C400,544.527 388.807,533.333 375,533.333L175.798,533.333Z" style="fill:rgb(33,33,33);fill-rule:nonzero;"/>
    </g>
    <path d="M66.667,191.667C66.667,141.041 107.707,100 158.333,100L641.667,100C692.293,100 733.333,141.041 733.333,191.667L733.333,608.333C733.333,658.96 692.293,700 641.667,700L158.333,700C107.707,700 66.667,658.96 66.667,608.333L66.667,191.667ZM158.333,150C135.321,150 116.667,168.655 116.667,191.667L116.667,608.333C116.667,631.347 135.321,650 158.333,650L641.667,650C664.68,650 683.333,631.347 683.333,608.333L683.333,191.667C683.333,168.655 664.68,150 641.667,150L158.333,150Z" style="fill:rgb(33,33,33);fill-rule:nonzero;"/>
</svg>
