<?xml version="1.0" encoding="UTF-8" standalone="no"?>
<!DOCTYPE svg PUBLIC "-//W3C//DTD SVG 1.1//EN" "http://www.w3.org/Graphics/SVG/1.1/DTD/svg11.dtd">
<svg width="100%" height="100%" viewBox="0 0 693 324" version="1.1" xmlns="http://www.w3.org/2000/svg" xmlns:xlink="http://www.w3.org/1999/xlink" xml:space="preserve" xmlns:serif="http://www.serif.com/" style="fill-rule:evenodd;clip-rule:evenodd;stroke-linecap:round;stroke-linejoin:round;stroke-miterlimit:1.5;">
    <g id="Preview" transform="matrix(1,0,0,1,-53,-155.5)">
        <rect x="71" y="174" width="650" height="287" style="fill:white;stroke:black;stroke-width:1px;"/>
    </g>
    <g id="LastLine" transform="matrix(1,0,0,1,-57,-22)">
        <g transform="matrix(1.00962,0,0,0.84252,-2.83654,50.3937)">
            <rect x="87" y="256.5" width="624" height="63.5" style="fill:rgb(255,191,0);"/>
        </g>
        <g transform="matrix(1,0,0,1,315.293,247.108)">
            <path d="M48.702,57.877L48.702,34.016L51.86,34.016L51.86,55.061L63.611,55.061L63.611,57.877L48.702,57.877Z" style="fill-rule:nonzero;"/>
            <path d="M78.276,55.745C77.191,56.667 76.147,57.318 75.143,57.698C74.139,58.078 73.062,58.268 71.912,58.268C70.013,58.268 68.554,57.804 67.534,56.876C66.514,55.948 66.004,54.763 66.004,53.32C66.004,52.473 66.197,51.7 66.582,51C66.967,50.3 67.471,49.739 68.095,49.316C68.719,48.893 69.422,48.572 70.203,48.355C70.778,48.204 71.646,48.057 72.807,47.916C75.173,47.634 76.914,47.298 78.032,46.907C78.043,46.505 78.048,46.25 78.048,46.142C78.048,44.948 77.771,44.107 77.218,43.619C76.469,42.957 75.357,42.626 73.882,42.626C72.503,42.626 71.486,42.868 70.83,43.351C70.173,43.833 69.688,44.688 69.373,45.914L66.508,45.523C66.769,44.297 67.197,43.307 67.794,42.553C68.391,41.799 69.254,41.218 70.382,40.812C71.511,40.405 72.818,40.201 74.305,40.201C75.78,40.201 76.979,40.375 77.902,40.722C78.824,41.069 79.502,41.506 79.936,42.032C80.37,42.558 80.674,43.223 80.848,44.026C80.945,44.525 80.994,45.426 80.994,46.728L80.994,50.634C80.994,53.358 81.057,55.08 81.181,55.802C81.306,56.523 81.553,57.215 81.922,57.877L78.862,57.877C78.558,57.269 78.363,56.559 78.276,55.745ZM78.032,49.202C76.969,49.636 75.373,50.005 73.247,50.309C72.042,50.482 71.191,50.678 70.691,50.895C70.192,51.112 69.807,51.429 69.536,51.847C69.265,52.264 69.129,52.728 69.129,53.238C69.129,54.02 69.425,54.671 70.016,55.191C70.607,55.712 71.473,55.973 72.612,55.973C73.74,55.973 74.744,55.726 75.623,55.232C76.502,54.738 77.148,54.063 77.56,53.206C77.875,52.544 78.032,51.567 78.032,50.276L78.032,49.202Z" style="fill-rule:nonzero;"/>
            <path d="M84.363,52.717L87.26,52.262C87.423,53.423 87.876,54.313 88.619,54.931C89.363,55.549 90.402,55.859 91.736,55.859C93.082,55.859 94.08,55.585 94.731,55.037C95.382,54.489 95.708,53.846 95.708,53.108C95.708,52.446 95.42,51.925 94.845,51.546C94.444,51.285 93.445,50.954 91.85,50.553C89.702,50.01 88.213,49.541 87.382,49.145C86.552,48.749 85.923,48.201 85.494,47.501C85.066,46.801 84.852,46.028 84.852,45.182C84.852,44.411 85.028,43.698 85.381,43.041C85.733,42.385 86.213,41.84 86.821,41.406C87.277,41.069 87.898,40.784 88.685,40.551C89.471,40.318 90.315,40.201 91.215,40.201C92.572,40.201 93.763,40.396 94.788,40.787C95.813,41.178 96.57,41.707 97.059,42.374C97.547,43.041 97.883,43.934 98.068,45.051L95.203,45.442C95.073,44.552 94.696,43.858 94.072,43.359C93.448,42.86 92.566,42.61 91.427,42.61C90.082,42.61 89.121,42.832 88.546,43.277C87.971,43.722 87.684,44.243 87.684,44.84C87.684,45.22 87.803,45.561 88.042,45.865C88.28,46.18 88.655,46.44 89.165,46.646C89.458,46.755 90.32,47.005 91.753,47.395C93.825,47.949 95.271,48.402 96.09,48.754C96.909,49.107 97.552,49.62 98.019,50.292C98.485,50.965 98.719,51.801 98.719,52.799C98.719,53.775 98.434,54.695 97.864,55.558C97.295,56.42 96.473,57.088 95.398,57.56C94.324,58.032 93.109,58.268 91.753,58.268C89.507,58.268 87.795,57.801 86.618,56.868C85.44,55.935 84.689,54.551 84.363,52.717Z" style="fill-rule:nonzero;"/>
            <path d="M108.598,55.257L109.021,57.844C108.197,58.018 107.459,58.105 106.808,58.105C105.745,58.105 104.92,57.937 104.334,57.6C103.748,57.264 103.336,56.822 103.097,56.274C102.858,55.726 102.739,54.573 102.739,52.815L102.739,42.87L100.59,42.87L100.59,40.592L102.739,40.592L102.739,36.311L105.652,34.553L105.652,40.592L108.598,40.592L108.598,42.87L105.652,42.87L105.652,52.978C105.652,53.813 105.704,54.35 105.807,54.589C105.91,54.828 106.078,55.018 106.312,55.159C106.545,55.3 106.878,55.37 107.313,55.37C107.638,55.37 108.067,55.332 108.598,55.257Z" style="fill-rule:nonzero;"/>
            <rect x="120.659" y="34.016" width="2.93" height="23.861"/>
            <path d="M128.146,37.385L128.146,34.016L131.076,34.016L131.076,37.385L128.146,37.385ZM128.146,57.877L128.146,40.592L131.076,40.592L131.076,57.877L128.146,57.877Z" style="fill-rule:nonzero;"/>
            <path d="M135.535,57.877L135.535,40.592L138.172,40.592L138.172,43.049C139.441,41.151 141.275,40.201 143.673,40.201C144.715,40.201 145.672,40.388 146.546,40.763C147.419,41.137 148.073,41.628 148.507,42.236C148.941,42.843 149.245,43.565 149.419,44.4C149.527,44.943 149.581,45.892 149.581,47.249L149.581,57.877L146.652,57.877L146.652,47.363C146.652,46.169 146.538,45.277 146.31,44.685C146.082,44.094 145.678,43.622 145.097,43.269C144.517,42.917 143.836,42.74 143.055,42.74C141.807,42.74 140.73,43.136 139.824,43.928C138.918,44.72 138.465,46.223 138.465,48.437L138.465,57.877L135.535,57.877Z" style="fill-rule:nonzero;"/>
            <path d="M165.906,52.311L168.934,52.685C168.456,54.454 167.572,55.826 166.281,56.803C164.989,57.779 163.34,58.268 161.333,58.268C158.804,58.268 156.8,57.489 155.319,55.932C153.838,54.375 153.097,52.191 153.097,49.381C153.097,46.473 153.846,44.216 155.343,42.61C156.84,41.004 158.783,40.201 161.17,40.201C163.481,40.201 165.369,40.988 166.834,42.561C168.299,44.135 169.031,46.348 169.031,49.202C169.031,49.375 169.026,49.636 169.015,49.983L156.124,49.983C156.233,51.882 156.77,53.336 157.736,54.345C158.701,55.354 159.906,55.859 161.349,55.859C162.423,55.859 163.34,55.577 164.1,55.012C164.859,54.448 165.461,53.548 165.906,52.311ZM156.287,47.574L165.939,47.574C165.809,46.12 165.44,45.03 164.832,44.303C163.899,43.174 162.689,42.61 161.202,42.61C159.857,42.61 158.726,43.06 157.809,43.961C156.892,44.862 156.385,46.066 156.287,47.574Z" style="fill-rule:nonzero;"/>
        </g>
    </g>
    <g id="FirstLine" transform="matrix(1,0,0,1,-57,-239)">
        <g transform="matrix(1.00962,0,0,0.84252,-2.83654,50.3937)">
            <rect x="87" y="256.5" width="624" height="63.5" style="fill:rgb(165,223,0);"/>
        </g>
        <g id="Text" transform="matrix(1,0,0,1,315,247.108)">
            <path d="M48.995,57.877L48.995,34.016L65.092,34.016L65.092,36.832L52.153,36.832L52.153,44.221L63.351,44.221L63.351,47.037L52.153,47.037L52.153,57.877L48.995,57.877Z" style="fill-rule:nonzero;"/>
            <path d="M68.836,37.385L68.836,34.016L71.766,34.016L71.766,37.385L68.836,37.385ZM68.836,57.877L68.836,40.592L71.766,40.592L71.766,57.877L68.836,57.877Z" style="fill-rule:nonzero;"/>
            <path d="M76.193,57.877L76.193,40.592L78.829,40.592L78.829,43.212C79.502,41.986 80.123,41.178 80.693,40.787C81.263,40.396 81.889,40.201 82.573,40.201C83.56,40.201 84.564,40.516 85.584,41.145L84.575,43.863C83.859,43.44 83.143,43.229 82.426,43.229C81.786,43.229 81.211,43.421 80.701,43.806C80.191,44.192 79.828,44.726 79.611,45.41C79.285,46.451 79.122,47.59 79.122,48.827L79.122,57.877L76.193,57.877Z" style="fill-rule:nonzero;"/>
            <path d="M86.154,52.717L89.051,52.262C89.214,53.423 89.667,54.313 90.41,54.931C91.153,55.549 92.192,55.859 93.527,55.859C94.872,55.859 95.87,55.585 96.521,55.037C97.173,54.489 97.498,53.846 97.498,53.108C97.498,52.446 97.211,51.925 96.635,51.546C96.234,51.285 95.236,50.954 93.641,50.553C91.492,50.01 90.003,49.541 89.173,49.145C88.343,48.749 87.713,48.201 87.285,47.501C86.856,46.801 86.642,46.028 86.642,45.182C86.642,44.411 86.818,43.698 87.171,43.041C87.524,42.385 88.004,41.84 88.611,41.406C89.067,41.069 89.688,40.784 90.475,40.551C91.262,40.318 92.105,40.201 93.006,40.201C94.362,40.201 95.553,40.396 96.578,40.787C97.604,41.178 98.361,41.707 98.849,42.374C99.337,43.041 99.674,43.934 99.858,45.051L96.993,45.442C96.863,44.552 96.486,43.858 95.862,43.359C95.238,42.86 94.357,42.61 93.217,42.61C91.872,42.61 90.912,42.832 90.337,43.277C89.762,43.722 89.474,44.243 89.474,44.84C89.474,45.22 89.593,45.561 89.832,45.865C90.071,46.18 90.445,46.44 90.955,46.646C91.248,46.755 92.111,47.005 93.543,47.395C95.615,47.949 97.061,48.402 97.881,48.754C98.7,49.107 99.343,49.62 99.809,50.292C100.276,50.965 100.509,51.801 100.509,52.799C100.509,53.775 100.224,54.695 99.655,55.558C99.085,56.42 98.263,57.088 97.189,57.56C96.115,58.032 94.899,58.268 93.543,58.268C91.297,58.268 89.585,57.801 88.408,56.868C87.231,55.935 86.479,54.551 86.154,52.717Z" style="fill-rule:nonzero;"/>
            <path d="M110.389,55.257L110.812,57.844C109.987,58.018 109.249,58.105 108.598,58.105C107.535,58.105 106.71,57.937 106.124,57.6C105.538,57.264 105.126,56.822 104.887,56.274C104.649,55.726 104.529,54.573 104.529,52.815L104.529,42.87L102.381,42.87L102.381,40.592L104.529,40.592L104.529,36.311L107.443,34.553L107.443,40.592L110.389,40.592L110.389,42.87L107.443,42.87L107.443,52.978C107.443,53.813 107.494,54.35 107.597,54.589C107.7,54.828 107.869,55.018 108.102,55.159C108.335,55.3 108.669,55.37 109.103,55.37C109.428,55.37 109.857,55.332 110.389,55.257Z" style="fill-rule:nonzero;"/>
            <rect x="122.449" y="34.016" width="2.93" height="23.861"/>
            <path d="M129.936,37.385L129.936,34.016L132.866,34.016L132.866,37.385L129.936,37.385ZM129.936,57.877L129.936,40.592L132.866,40.592L132.866,57.877L129.936,57.877Z" style="fill-rule:nonzero;"/>
            <path d="M137.326,57.877L137.326,40.592L139.962,40.592L139.962,43.049C141.232,41.151 143.066,40.201 145.464,40.201C146.505,40.201 147.463,40.388 148.336,40.763C149.21,41.137 149.863,41.628 150.298,42.236C150.732,42.843 151.035,43.565 151.209,44.4C151.317,44.943 151.372,45.892 151.372,47.249L151.372,57.877L148.442,57.877L148.442,47.363C148.442,46.169 148.328,45.277 148.1,44.685C147.872,44.094 147.468,43.622 146.888,43.269C146.307,42.917 145.626,42.74 144.845,42.74C143.597,42.74 142.52,43.136 141.614,43.928C140.708,44.72 140.255,46.223 140.255,48.437L140.255,57.877L137.326,57.877Z" style="fill-rule:nonzero;"/>
            <path d="M167.697,52.311L170.724,52.685C170.247,54.454 169.362,55.826 168.071,56.803C166.78,57.779 165.13,58.268 163.123,58.268C160.595,58.268 158.59,57.489 157.109,55.932C155.628,54.375 154.887,52.191 154.887,49.381C154.887,46.473 155.636,44.216 157.133,42.61C158.631,41.004 160.573,40.201 162.96,40.201C165.271,40.201 167.16,40.988 168.624,42.561C170.089,44.135 170.822,46.348 170.822,49.202C170.822,49.375 170.816,49.636 170.805,49.983L157.915,49.983C158.023,51.882 158.56,53.336 159.526,54.345C160.492,55.354 161.696,55.859 163.139,55.859C164.214,55.859 165.13,55.577 165.89,55.012C166.65,54.448 167.252,53.548 167.697,52.311ZM158.077,47.574L167.729,47.574C167.599,46.12 167.23,45.03 166.622,44.303C165.689,43.174 164.479,42.61 162.993,42.61C161.647,42.61 160.516,43.06 159.599,43.961C158.682,44.862 158.175,46.066 158.077,47.574Z" style="fill-rule:nonzero;"/>
        </g>
    </g>
    <g id="Body">
        <g transform="matrix(1,0,0,1,-57,-239)">
            <rect x="85" y="330" width="630" height="144" style="fill:rgb(4,180,4);"/>
        </g>
        <g transform="matrix(1,0,0,1,258.195,115.857)">
            <path d="M48.8,57.877L48.8,34.016L52.039,34.016L64.572,52.75L64.572,34.016L67.599,34.016L67.599,57.877L64.36,57.877L51.827,39.127L51.827,57.877L48.8,57.877Z" style="fill-rule:nonzero;"/>
            <path d="M71.44,49.234C71.44,46.033 72.33,43.663 74.109,42.122C75.596,40.841 77.408,40.201 79.546,40.201C81.922,40.201 83.864,40.98 85.372,42.537C86.881,44.094 87.635,46.245 87.635,48.99C87.635,51.215 87.301,52.964 86.634,54.239C85.966,55.514 84.995,56.504 83.72,57.21C82.445,57.915 81.054,58.268 79.546,58.268C77.126,58.268 75.17,57.492 73.678,55.94C72.186,54.388 71.44,52.153 71.44,49.234ZM74.451,49.234C74.451,51.448 74.934,53.105 75.9,54.207C76.865,55.308 78.081,55.859 79.546,55.859C81,55.859 82.209,55.305 83.175,54.199C84.141,53.092 84.624,51.405 84.624,49.137C84.624,46.999 84.138,45.38 83.167,44.278C82.196,43.177 80.989,42.626 79.546,42.626C78.081,42.626 76.865,43.174 75.9,44.27C74.934,45.366 74.451,47.021 74.451,49.234Z" style="fill-rule:nonzero;"/>
            <path d="M97.465,55.257L97.889,57.844C97.064,58.018 96.326,58.105 95.675,58.105C94.612,58.105 93.787,57.937 93.201,57.6C92.615,57.264 92.203,56.822 91.964,56.274C91.725,55.726 91.606,54.573 91.606,52.815L91.606,42.87L89.458,42.87L89.458,40.592L91.606,40.592L91.606,36.311L94.52,34.553L94.52,40.592L97.465,40.592L97.465,42.87L94.52,42.87L94.52,52.978C94.52,53.813 94.571,54.35 94.674,54.589C94.777,54.828 94.945,55.018 95.179,55.159C95.412,55.3 95.746,55.37 96.18,55.37C96.505,55.37 96.934,55.332 97.465,55.257Z" style="fill-rule:nonzero;"/>
            <path d="M112.163,52.311L115.19,52.685C114.713,54.454 113.828,55.826 112.537,56.803C111.246,57.779 109.597,58.268 107.589,58.268C105.061,58.268 103.056,57.489 101.575,55.932C100.094,54.375 99.354,52.191 99.354,49.381C99.354,46.473 100.102,44.216 101.6,42.61C103.097,41.004 105.039,40.201 107.426,40.201C109.738,40.201 111.626,40.988 113.09,42.561C114.555,44.135 115.288,46.348 115.288,49.202C115.288,49.375 115.282,49.636 115.271,49.983L102.381,49.983C102.489,51.882 103.026,53.336 103.992,54.345C104.958,55.354 106.162,55.859 107.605,55.859C108.68,55.859 109.597,55.577 110.356,55.012C111.116,54.448 111.718,53.548 112.163,52.311ZM102.544,47.574L112.195,47.574C112.065,46.12 111.696,45.03 111.089,44.303C110.155,43.174 108.946,42.61 107.459,42.61C106.113,42.61 104.982,43.06 104.065,43.961C103.149,44.862 102.641,46.066 102.544,47.574Z" style="fill-rule:nonzero;"/>
            <path d="M134.526,55.257L134.949,57.844C134.125,58.018 133.387,58.105 132.736,58.105C131.672,58.105 130.848,57.937 130.262,57.6C129.676,57.264 129.263,56.822 129.025,56.274C128.786,55.726 128.667,54.573 128.667,52.815L128.667,42.87L126.518,42.87L126.518,40.592L128.667,40.592L128.667,36.311L131.58,34.553L131.58,40.592L134.526,40.592L134.526,42.87L131.58,42.87L131.58,52.978C131.58,53.813 131.632,54.35 131.735,54.589C131.838,54.828 132.006,55.018 132.239,55.159C132.473,55.3 132.806,55.37 133.24,55.37C133.566,55.37 133.994,55.332 134.526,55.257Z" style="fill-rule:nonzero;"/>
            <path d="M149.223,52.311L152.251,52.685C151.773,54.454 150.889,55.826 149.598,56.803C148.306,57.779 146.657,58.268 144.65,58.268C142.122,58.268 140.117,57.489 138.636,55.932C137.155,54.375 136.414,52.191 136.414,49.381C136.414,46.473 137.163,44.216 138.66,42.61C140.158,41.004 142.1,40.201 144.487,40.201C146.798,40.201 148.686,40.988 150.151,42.561C151.616,44.135 152.348,46.348 152.348,49.202C152.348,49.375 152.343,49.636 152.332,49.983L139.441,49.983C139.55,51.882 140.087,53.336 141.053,54.345C142.018,55.354 143.223,55.859 144.666,55.859C145.74,55.859 146.657,55.577 147.417,55.012C148.176,54.448 148.778,53.548 149.223,52.311ZM139.604,47.574L149.256,47.574C149.126,46.12 148.757,45.03 148.149,44.303C147.216,43.174 146.006,42.61 144.52,42.61C143.174,42.61 142.043,43.06 141.126,43.961C140.209,44.862 139.702,46.066 139.604,47.574Z" style="fill-rule:nonzero;"/>
            <path d="M153.976,57.877L160.291,48.893L154.448,40.592L158.11,40.592L160.763,44.645C161.262,45.415 161.664,46.061 161.967,46.581C162.445,45.865 162.884,45.23 163.286,44.677L166.199,40.592L169.699,40.592L163.725,48.73L170.154,57.877L166.557,57.877L163.009,52.506L162.065,51.057L157.524,57.877L153.976,57.877Z" style="fill-rule:nonzero;"/>
            <path d="M178.992,55.257L179.415,57.844C178.591,58.018 177.853,58.105 177.202,58.105C176.138,58.105 175.314,57.937 174.728,57.6C174.142,57.264 173.73,56.822 173.491,56.274C173.252,55.726 173.133,54.573 173.133,52.815L173.133,42.87L170.984,42.87L170.984,40.592L173.133,40.592L173.133,36.311L176.046,34.553L176.046,40.592L178.992,40.592L178.992,42.87L176.046,42.87L176.046,52.978C176.046,53.813 176.098,54.35 176.201,54.589C176.304,54.828 176.472,55.018 176.705,55.159C176.939,55.3 177.272,55.37 177.706,55.37C178.032,55.37 178.461,55.332 178.992,55.257Z" style="fill-rule:nonzero;"/>
        </g>
    </g>
    <g id="Thumbnail">
        <g id="Image" transform="matrix(2.21312,0,0,2.48165,-1069.71,-792.195)">
            <rect x="496" y="330" width="122" height="109" style="fill:rgb(1,116,223);"/>
        </g>
        <g id="Text1" serif:id="Text" transform="matrix(3.03846,0,0,2.01064,-1434.34,-135.702)">
            <path d="M504.844,153.9L504.844,143.433L502.257,143.433L502.257,142.033L508.482,142.033L508.482,143.433L505.884,143.433L505.884,153.9L504.844,153.9Z" style="fill-rule:nonzero;"/>
            <path d="M509.424,153.9L509.424,142.033L510.389,142.033L510.389,146.29C510.839,145.503 511.406,145.109 512.092,145.109C512.513,145.109 512.879,145.234 513.19,145.485C513.501,145.736 513.723,146.083 513.857,146.525C513.991,146.968 514.058,147.61 514.058,148.452L514.058,153.9L513.094,153.9L513.094,148.452C513.094,147.723 512.989,147.193 512.78,146.861C512.571,146.529 512.276,146.363 511.894,146.363C511.608,146.363 511.339,146.475 511.088,146.699C510.836,146.923 510.656,147.227 510.549,147.61C510.442,147.993 510.389,148.522 510.389,149.197L510.389,153.9L509.424,153.9Z" style="fill-rule:nonzero;"/>
            <path d="M519.254,153.9L519.254,152.637C518.811,153.608 518.209,154.094 517.449,154.094C517.113,154.094 516.8,153.997 516.509,153.803C516.218,153.608 516.001,153.364 515.86,153.07C515.719,152.776 515.62,152.416 515.563,151.989C515.524,151.703 515.504,151.25 515.504,150.629L515.504,145.303L516.468,145.303L516.468,150.071C516.468,150.832 516.488,151.344 516.527,151.609C516.588,151.992 516.717,152.293 516.913,152.511C517.109,152.73 517.352,152.839 517.641,152.839C517.931,152.839 518.202,152.727 518.456,152.503C518.709,152.279 518.889,151.974 518.994,151.589C519.099,151.203 519.152,150.643 519.152,149.909L519.152,145.303L520.116,145.303L520.116,153.9L519.254,153.9Z" style="fill-rule:nonzero;"/>
            <path d="M521.627,153.9L521.627,145.303L522.489,145.303L522.489,146.509C522.668,146.088 522.905,145.749 523.202,145.493C523.498,145.237 523.836,145.109 524.214,145.109C524.636,145.109 524.981,145.241 525.251,145.505C525.52,145.77 525.71,146.139 525.821,146.614C526.271,145.61 526.857,145.109 527.578,145.109C528.142,145.109 528.576,145.345 528.88,145.817C529.183,146.289 529.335,147.016 529.335,147.999L529.335,153.9L528.376,153.9L528.376,148.484C528.376,147.901 528.345,147.482 528.283,147.225C528.22,146.969 528.107,146.763 527.942,146.606C527.778,146.45 527.585,146.371 527.364,146.371C526.964,146.371 526.632,146.572 526.368,146.974C526.103,147.377 525.971,148.02 525.971,148.905L525.971,153.9L525.007,153.9L525.007,148.314C525.007,147.667 524.928,147.181 524.771,146.857C524.614,146.533 524.357,146.371 524,146.371C523.728,146.371 523.478,146.479 523.247,146.695C523.017,146.911 522.85,147.227 522.746,147.642C522.643,148.058 522.591,148.657 522.591,149.439L522.591,153.9L521.627,153.9Z" style="fill-rule:nonzero;"/>
            <path d="M531.655,153.9L530.76,153.9L530.76,142.033L531.724,142.033L531.724,146.266C532.131,145.494 532.651,145.109 533.283,145.109C533.633,145.109 533.964,145.215 534.277,145.428C534.589,145.642 534.846,145.941 535.048,146.327C535.25,146.713 535.408,147.178 535.522,147.723C535.636,148.268 535.693,148.851 535.693,149.472C535.693,150.945 535.452,152.084 534.97,152.888C534.488,153.692 533.91,154.094 533.235,154.094C532.563,154.094 532.037,153.67 531.655,152.823L531.655,153.9ZM531.644,149.537C531.644,150.567 531.737,151.312 531.922,151.771C532.226,152.521 532.637,152.896 533.154,152.896C533.576,152.896 533.94,152.619 534.247,152.066C534.554,151.513 534.708,150.689 534.708,149.593C534.708,148.471 534.561,147.642 534.266,147.108C533.971,146.574 533.615,146.307 533.197,146.307C532.776,146.307 532.412,146.583 532.104,147.136C531.797,147.69 531.644,148.49 531.644,149.537Z" style="fill-rule:nonzero;"/>
            <path d="M536.867,153.9L536.867,145.303L537.734,145.303L537.734,146.525C538.152,145.581 538.756,145.109 539.545,145.109C539.888,145.109 540.203,145.202 540.49,145.388C540.778,145.574 540.993,145.818 541.136,146.12C541.279,146.423 541.379,146.782 541.436,147.197C541.472,147.467 541.489,147.939 541.489,148.614L541.489,153.9L540.525,153.9L540.525,148.67C540.525,148.077 540.488,147.633 540.413,147.339C540.338,147.045 540.205,146.81 540.014,146.635C539.823,146.459 539.598,146.371 539.341,146.371C538.931,146.371 538.576,146.568 538.278,146.962C537.98,147.356 537.831,148.104 537.831,149.205L537.831,153.9L536.867,153.9Z" style="fill-rule:nonzero;"/>
            <path d="M546.68,152.839C546.323,153.298 545.979,153.622 545.649,153.811C545.319,154 544.964,154.094 544.586,154.094C543.961,154.094 543.48,153.863 543.145,153.402C542.809,152.94 542.641,152.351 542.641,151.633C542.641,151.212 542.704,150.828 542.831,150.48C542.958,150.132 543.124,149.852 543.329,149.642C543.535,149.431 543.766,149.272 544.023,149.164C544.212,149.089 544.498,149.016 544.88,148.946C545.659,148.805 546.232,148.638 546.6,148.444C546.603,148.244 546.605,148.117 546.605,148.063C546.605,147.47 546.514,147.051 546.332,146.809C546.085,146.479 545.719,146.315 545.234,146.315C544.78,146.315 544.445,146.435 544.229,146.675C544.013,146.915 543.853,147.34 543.75,147.95L542.807,147.756C542.893,147.146 543.034,146.653 543.23,146.278C543.427,145.903 543.711,145.615 544.082,145.412C544.453,145.21 544.884,145.109 545.373,145.109C545.859,145.109 546.253,145.195 546.557,145.368C546.86,145.54 547.084,145.758 547.226,146.019C547.369,146.281 547.469,146.612 547.526,147.011C547.558,147.259 547.575,147.707 547.575,148.355L547.575,150.297C547.575,151.652 547.595,152.509 547.636,152.868C547.677,153.227 547.758,153.571 547.88,153.9L546.873,153.9C546.773,153.598 546.709,153.244 546.68,152.839ZM546.6,149.585C546.25,149.801 545.725,149.984 545.025,150.136C544.628,150.222 544.348,150.319 544.184,150.427C544.02,150.535 543.893,150.693 543.803,150.901C543.714,151.108 543.67,151.339 543.67,151.593C543.67,151.981 543.767,152.305 543.961,152.564C544.156,152.823 544.441,152.953 544.816,152.953C545.187,152.953 545.518,152.83 545.807,152.584C546.096,152.339 546.309,152.003 546.444,151.576C546.548,151.247 546.6,150.762 546.6,150.119L546.6,149.585Z" style="fill-rule:nonzero;"/>
            <path d="M549.074,143.708L549.074,142.033L550.039,142.033L550.039,143.708L549.074,143.708ZM549.074,153.9L549.074,145.303L550.039,145.303L550.039,153.9L549.074,153.9Z" style="fill-rule:nonzero;"/>
            <rect x="551.485" y="142.033" width="0.964" height="11.867"/>
        </g>
    </g>
</svg>
